<mxfile host="app.diagrams.net" modified="2024-03-21T00:38:41.825Z" agent="Mozilla/5.0 (Macintosh; Intel Mac OS X 10_15_7) AppleWebKit/537.36 (KHTML, like Gecko) Chrome/122.0.0.0 Safari/537.36 Edg/122.0.0.0" version="24.0.7" etag="5cF00f25fqMU9IdqbM0W" type="github">
  <diagram name="第 1 页" id="KRMSmO8XY34iK9mEilo1">
    <mxGraphModel>
      <root>
        <mxCell id="0" />
        <mxCell id="1" parent="0" />
      </root>
    </mxGraphModel>
  </diagram>
</mxfile>
